<svg viewBox="0 0 315 87" xmlns="http://www.w3.org/2000/svg" xmlns:xlink="http://www.w3.org/1999/xlink"><filter id="a" color-interpolation-filters="sRGB" filterUnits="userSpaceOnUse" height="32766" width="247.77" x="33.42" y="-8236"><feFlood flood-color="#fff" result="bg"/><feBlend in="SourceGraphic" in2="bg"/></filter><mask id="b" height="32766" maskUnits="userSpaceOnUse" width="247.77" x="33.38" y="-8236"><g filter="url(#a)"/></mask><g fill="#fff" transform="translate(-.04)"><path d="m313 2v83h-311v-83zm2-2h-315v87h315z"/><path d="m34.67 36.66a8.84 8.84 0 0 0 6.25 2.58c1.73 0 2.79-.73 2.79-1.67 0-1.12-1.27-1.56-3.35-2-3.23-.64-7.75-1.46-7.75-6.1 0-3.29 2.79-6.13 7.81-6.13a11.93 11.93 0 0 1 7.95 2.73l-2.76 3.61a9.08 9.08 0 0 0 -5.51-2c-1.68 0-2.32.68-2.32 1.53 0 1 1.2 1.38 3.37 1.79 3.23.67 7.69 1.61 7.69 6 0 3.93-2.9 6.54-8.16 6.54a11.94 11.94 0 0 1 -8.68-3.1z"/><path d="m52.65 23.63h5.14v11.47c0 2.32 1.23 4 4 4s3.93-1.67 3.93-4v-11.47h5.14v11.62c0 4.87-2.79 8.3-9.07 8.3s-9.1-3.46-9.1-8.27z"/><path d="m75.8 23.63h9.8c4.4 0 6.81 3 6.81 6.51s-2.41 6.43-6.81 6.43h-4.75v6.63h-5zm9.13 4.26h-4.08v4.4h4.08a2.15 2.15 0 0 0 2.34-2.17 2.18 2.18 0 0 0 -2.34-2.23z"/><path d="m96.13 23.63h9.8c4.4 0 6.81 3 6.81 6.51s-2.41 6.43-6.81 6.43h-4.75v6.63h-5.05zm9.13 4.26h-4.08v4.4h4.08a2.16 2.16 0 0 0 2.35-2.17 2.19 2.19 0 0 0 -2.35-2.23z"/><path d="m125.94 23.31c6 0 10.45 4.16 10.45 10.12s-4.46 10.12-10.45 10.12-10.47-4.16-10.47-10.12 4.53-10.12 10.47-10.12zm0 4.46c-3.25 0-5.34 2.46-5.34 5.66s2.09 5.66 5.34 5.66 5.31-2.49 5.31-5.66-2.08-5.66-5.31-5.66z"/><path d="m148 36.57h-2.59v6.63h-5v-19.57h9.8c4.34 0 6.8 2.88 6.8 6.51a5.92 5.92 0 0 1 -3.9 5.87l4 7.19h-5.78zm1.4-8.68h-4v4.4h4a2.21 2.21 0 1 0 0-4.4z"/><path d="m165.35 28h-5.49v-4.4h16v4.4h-5.46v15.2h-5z"/></g><g fill="#c8c372" mask="url(#b)"><path d="m33.42 61.92v-7.14a2.09 2.09 0 0 1 2.38-2.38h4a2.09 2.09 0 0 1 2.38 2.38v1.94h-2.5v-1.72c0-.26-.09-.34-.34-.34h-3.13c-.25 0-.34.08-.34.34v6.73c0 .25.09.34.34.34h3.13c.25 0 .34-.09.34-.34v-1.73h2.45v1.93a2.08 2.08 0 0 1 -2.38 2.38h-4a2.08 2.08 0 0 1 -2.33-2.39z" transform="translate(-.04)"/><path d="m44.35 61.92v-7.14a2.09 2.09 0 0 1 2.38-2.38h4.37a2.08 2.08 0 0 1 2.38 2.38v7.14a2.08 2.08 0 0 1 -2.38 2.38h-4.37a2.08 2.08 0 0 1 -2.38-2.38zm6.34.14c.26 0 .34-.09.34-.34v-6.72c0-.26-.08-.34-.34-.34h-3.55c-.25 0-.34.08-.34.34v6.73c0 .25.09.34.34.34z" transform="translate(-.04)"/><path d="m56.22 52.4h2.45v9.66h5.13v2.24h-7.58z" transform="translate(-.04)"/><path d="m65.43 61.92v-7.14a2.09 2.09 0 0 1 2.38-2.38h4.37a2.08 2.08 0 0 1 2.38 2.38v7.14a2.08 2.08 0 0 1 -2.38 2.38h-4.37a2.08 2.08 0 0 1 -2.38-2.38zm6.34.14c.26 0 .34-.09.34-.34v-6.72c0-.26-.08-.34-.34-.34h-3.55c-.25 0-.34.08-.34.34v6.73c0 .25.09.34.34.34z" transform="translate(-.04)"/><path d="m86.33 64.3h-2.64l-2-4.2h-2v4.2h-2.39v-11.9h6.27a2.08 2.08 0 0 1 2.43 2.38v2.88c0 1.34-.52 2.1-1.65 2.31zm-3.17-6.37c.26 0 .34-.09.34-.34v-2.59c0-.25-.08-.34-.34-.34h-3.41v3.32z" transform="translate(-.04)"/><path d="m95 61.72h-4.07l-.73 2.58h-2.58l3.62-11.9h3.57l3.62 11.9h-2.69zm-.63-2.25-1.41-5-1.41 5z" transform="translate(-.04)"/><path d="m100.39 52.4h6.51a2.09 2.09 0 0 1 2.38 2.38v7.14a2.08 2.08 0 0 1 -2.38 2.38h-6.51zm6.1 9.66c.25 0 .34-.09.34-.34v-6.72c0-.26-.09-.34-.34-.34h-3.66v7.41z" transform="translate(-.04)"/><path d="m111.72 61.92v-7.14a2.09 2.09 0 0 1 2.38-2.38h4.37a2.08 2.08 0 0 1 2.38 2.38v7.14a2.08 2.08 0 0 1 -2.38 2.38h-4.37a2.08 2.08 0 0 1 -2.38-2.38zm6.34.14c.26 0 .35-.09.35-.34v-6.72c0-.26-.09-.34-.35-.34h-3.55c-.25 0-.34.08-.34.34v6.73c0 .25.09.34.34.34z" transform="translate(-.04)"/><path d="m127.65 61.92v-1.49h2.35v1.32c0 .26.09.34.34.34h3.16c.26 0 .35-.08.35-.34v-1.42c0-.38-.14-.48-.58-.58l-3.16-.68c-1.5-.33-2.45-.92-2.45-2.45v-1.84a2.08 2.08 0 0 1 2.38-2.38h3.67a2.09 2.09 0 0 1 2.38 2.38v1.36h-2.38v-1.14c0-.25-.09-.34-.34-.34h-2.92c-.26 0-.34.09-.34.34v1.3c0 .37.13.47.57.57l3.17.68c1.49.33 2.44.92 2.44 2.45v2a2.08 2.08 0 0 1 -2.38 2.38h-3.91a2.08 2.08 0 0 1 -2.35-2.46z" transform="translate(-.04)"/><path d="m141.13 54.61h-3.23v-2.21h8.91v2.21h-3.23v9.69h-2.45z" transform="translate(-.04)"/><path d="m153.88 61.72h-4.08l-.73 2.58h-2.58l3.62-11.9h3.57l3.62 11.9h-2.69zm-.63-2.25-1.41-5-1.41 5z" transform="translate(-.04)"/><path d="m160.21 54.61h-3.21v-2.21h8.91v2.21h-3.23v9.69h-2.45z" transform="translate(-.04)"/><path d="m168 52.4h8v2.25h-5.56v2.46h4.56v2.21h-4.51v2.74h5.51v2.24h-8z" transform="translate(-.04)"/><path d="m182.8 61.92v-9.52h2.45v9.32c0 .25.08.34.34.34h3.33c.26 0 .34-.09.34-.34v-9.32h2.45v9.52a2.08 2.08 0 0 1 -2.38 2.38h-4.15a2.08 2.08 0 0 1 -2.38-2.38z" transform="translate(-.04)"/><path d="m194.62 52.4h2.55l4.5 7.67v-7.67h2.38v11.9h-2.38l-4.67-7.93v7.93h-2.38z" transform="translate(-.04)"/><path d="m207.08 52.4h2.45v11.9h-2.45z" transform="translate(-.04)"/><path d="m211.51 52.4h2.69l2.46 9.2 2.47-9.2h2.62l-3.69 11.9h-2.86z" transform="translate(-.04)"/><path d="m223.74 52.4h8v2.25h-5.56v2.46h4.51v2.21h-4.51v2.74h5.56v2.24h-8z" transform="translate(-.04)"/><path d="m243.27 64.3h-2.64l-2-4.2h-2v4.2h-2.45v-11.9h6.28a2.08 2.08 0 0 1 2.37 2.38v2.88c0 1.34-.52 2.1-1.64 2.31zm-3.16-6.37c.25 0 .34-.09.34-.34v-2.59c0-.25-.09-.34-.34-.34h-3.42v3.32z" transform="translate(-.04)"/><path d="m245.28 61.92v-1.49h2.38v1.32c0 .26.08.34.34.34h3.16c.25 0 .34-.08.34-.34v-1.42c0-.38-.14-.48-.58-.58l-3.16-.68c-1.5-.33-2.45-.92-2.45-2.45v-1.84a2.08 2.08 0 0 1 2.38-2.38h3.67a2.08 2.08 0 0 1 2.38 2.38v1.36h-2.38v-1.14c0-.25-.08-.34-.34-.34h-2.92c-.26 0-.34.09-.34.34v1.3c0 .37.13.47.57.57l3.17.68c1.49.33 2.44.92 2.44 2.45v2a2.08 2.08 0 0 1 -2.38 2.38h-3.9a2.08 2.08 0 0 1 -2.38-2.46z" transform="translate(-.04)"/><path d="m256.61 52.4h2.45v11.9h-2.45z" transform="translate(-.04)"/><path d="m264.4 54.61h-3.23v-2.21h8.91v2.21h-3.23v9.69h-2.45z" transform="translate(-.04)"/><path d="m274.87 60.24-3.87-7.84h2.65l2.46 5.31 2.47-5.31h2.62l-3.88 7.84v4.06h-2.45z" transform="translate(-.04)"/></g></svg>